<?xml version="1.0" encoding="UTF-8" standalone="no"?>
<svg
   width="4.8in"
   height="2.7in"
   viewBox="0 0 1920 1080"
   version="1.1"
   id="svg3"
   sodipodi:docname="fuzzilia_rogo.svg"
   inkscape:version="1.2.2 (732a01da63, 2022-12-09)"
   inkscape:export-filename="fuzzilia_rogo_svg.svg"
   inkscape:export-xdpi="400"
   inkscape:export-ydpi="400"
   xmlns:inkscape="http://www.inkscape.org/namespaces/inkscape"
   xmlns:sodipodi="http://sodipodi.sourceforge.net/DTD/sodipodi-0.dtd"
   xmlns="http://www.w3.org/2000/svg"
   xmlns:svg="http://www.w3.org/2000/svg">
  <defs
     id="defs7" />
  <sodipodi:namedview
     id="namedview5"
     pagecolor="#ffffff"
     bordercolor="#000000"
     borderopacity="0.25"
     inkscape:showpageshadow="2"
     inkscape:pageopacity="0"
     inkscape:pagecheckerboard="0"
     inkscape:deskcolor="#d1d1d1"
     inkscape:document-units="in"
     showgrid="false"
     inkscape:zoom="2.7539061"
     inkscape:cx="198.80852"
     inkscape:cy="129.99717"
     inkscape:window-width="1920"
     inkscape:window-height="1009"
     inkscape:window-x="-8"
     inkscape:window-y="-8"
     inkscape:window-maximized="1"
     inkscape:current-layer="layer1"
     shape-rendering="auto" />
  <g
     inkscape:groupmode="layer"
     id="layer2"
     inkscape:label="背景"
     style="display:inline;fill:#000000">
    <rect
       style="fill:#000000;stroke-width:4.16667"
       id="rect307"
       width="2000.1891"
       height="1139.2908"
       x="-48.416077"
       y="-34.799053" />
  </g>
  <g
     inkscape:groupmode="layer"
     id="layer1"
     inkscape:label="Layer 1"
     style="fill:#ffffff">
    <path
       style="fill:#ffffff;stroke-width:0.363121"
       d="m 397.40292,197.14537 c -2.27948,-0.54295 -5.24539,-2.51271 -6.56773,-4.36183 -4.08637,-5.71428 -2.08566,-13.64616 4.25214,-16.85777 l 1.80347,-0.91388 v -2.28477 c 0,-1.269 -0.2018,-2.54877 -0.4539,-2.87862 -0.24965,-0.32662 -2.65986,-2.15419 -5.35603,-4.06126 l -4.90213,-3.46741 -146.7915,-0.003 -146.791492,-0.002 -0.005,-18.42837 c -0.0027,-10.1356 -0.102952,-18.79398 -0.222722,-19.24084 -0.124894,-0.46598 -3.320499,-3.40829 -7.493229,-6.89929 -14.27308,-11.94118 -15.340371,-12.86829 -15.983554,-13.88412 -0.600189,-0.94794 -0.642888,-2.05136 -0.54703,-14.136212 0.07472,-9.419564 -0.0094,-13.107962 -0.298802,-13.107821 -0.795618,3.87e-4 -3.727768,-2.944933 -4.481211,-4.501339 -1.561972,-3.226604 -1.610835,-7.163361 -0.128049,-10.316723 0.991843,-2.109302 3.813259,-4.628268 6.187987,-5.524648 4.226243,-1.595266 9.225533,-0.397317 12.232686,2.931242 2.099982,2.324428 2.89362,4.400399 2.909093,7.609503 0.02205,4.574007 -2.164234,7.99348 -6.620769,10.355244 l -2.071428,1.097764 -0.09613,10.75661 -0.09613,10.756611 1.548608,1.460179 c 2.343159,2.20937 14.582089,12.40897 14.893289,12.41168 0.149787,10e-4 0.27234,-6.5338 0.27234,-14.522451 V 84.607096 H 241.11207 389.62838 v 35.222694 c 0,33.74163 0.0281,35.24942 0.66877,35.85816 0.36783,0.3495 3.31082,2.49306 6.53998,4.76346 7.9059,5.55856 7.6792,5.24931 7.6792,10.47551 v 4.19885 l 1.33394,1.12932 c 2.51656,2.13052 3.5013,3.311 4.41161,5.28847 1.76795,3.84057 0.99402,8.84208 -1.89717,12.26033 -2.16072,2.55464 -7.47023,4.17313 -10.96179,3.34148 z m 6.18011,-5.202 c 1.98999,-1.16621 3.16677,-3.30333 3.18913,-5.79168 0.0244,-2.72086 -1.38017,-5.00427 -3.88138,-6.30973 -1.39329,-0.72721 -4.43697,-0.72398 -5.84899,0.006 -5.28941,2.73525 -5.32641,9.7509 -0.0655,12.41376 2.27851,1.15329 4.25807,1.05783 6.60672,-0.31857 z m -21.98869,-31.67102 c 0.62411,-0.12483 1.1306,-0.32908 1.12553,-0.4539 -0.005,-0.12483 -1.42566,-1.20738 -3.15688,-2.40568 -1.73121,-1.1983 -4.05557,-2.80707 -5.16525,-3.57506 l -2.01758,-1.39633 -2.90497,0.25598 c -9.619,0.84764 -15.16663,-0.48818 -18.79714,-4.52618 -1.97472,-2.19636 -2.80853,-4.42687 -2.80853,-7.51302 0,-5.47443 3.14914,-9.39683 9.03497,-11.25349 0.9224,-0.29097 3.59708,-0.62754 5.94375,-0.74794 l 4.26667,-0.2189 v -1.96024 c 0,-1.59708 -0.16512,-2.12536 -0.8913,-2.85154 -0.84712,-0.84711 -1.10692,-0.89129 -5.24151,-0.89129 -3.7363,0 -6.34995,0.31841 -10.47996,1.27674 -0.80244,0.18619 -0.81692,0.12952 -0.81146,-3.17621 0.003,-1.85118 0.14615,-3.58767 0.31799,-3.85887 0.47788,-0.75421 5.58923,-1.83497 9.84383,-2.08141 7.55692,-0.43772 12.44528,0.91112 14.59435,4.02698 1.80893,2.62272 2.12066,4.80993 2.3548,16.52199 0.12232,6.11865 0.36721,10.9055 0.57111,11.16318 0.52726,0.66635 9.63766,6.99285 10.06997,6.99285 0.24866,0 0.37005,-11.01856 0.37005,-33.58866 V 86.422698 H 241.11207 94.411351 v 14.685792 14.68579 l 0.807038,0.56528 c 0.619529,0.43393 1.800684,0.56527 5.083691,0.56527 h 4.27665 v -3.7949 c 0,-6.26848 1.12063,-9.72456 3.99529,-12.32164 3.41936,-3.08919 8.55038,-3.910619 16.24868,-2.601261 l 1.54326,0.262485 v 3.988536 3.98854 l -2.08794,-0.29847 c -1.14837,-0.16416 -3.25,-0.28486 -4.67028,-0.26822 -4.55088,0.0533 -5.58211,1.47226 -5.58585,7.68606 l -0.002,3.35887 h 6.17305 6.17305 v 3.98554 3.98555 l -6.08227,0.0996 -6.08227,0.0996 -0.0952,13.7078 -0.0951,13.7078 h -4.7162 -4.7162 v -13.79858 -13.79858 h -5.083691 -5.083688 v 17.79291 17.79291 H 237.43547 c 78.66327,0 143.53476,-0.10213 144.15887,-0.22695 z m -14.93333,-15.22513 c 0.33156,-0.10176 0.4539,-1.36578 0.4539,-4.68972 v -4.5504 l -2.45107,0.002 c -5.77405,0.005 -8.41346,2.23346 -7.34486,6.20193 0.44628,1.65736 1.88097,2.78801 4.06608,3.20438 1.41212,0.26908 4.13399,0.1823 5.27595,-0.16821 z M 76.364135,73.126322 c 1.495016,-0.755358 2.744173,-1.898345 3.326804,-3.04405 3.027666,-5.953701 -3.146567,-12.305708 -9.140773,-9.403963 -4.003492,1.938057 -5.132552,6.807923 -2.412096,10.403869 1.820031,2.405748 5.634373,3.353597 8.226065,2.044144 z"
       id="path368"
       transform="scale(4.1666665)" />
    <path
       style="fill:#ffffff;stroke-width:0.363121"
       d="m 143.25107,152.84403 c -5.07839,-0.59665 -7.6837,-2.1176 -9.21266,-5.37823 l -0.95472,-2.03601 -0.10939,-14.97872 -0.10939,-14.97872 h 4.54051 4.54052 l 0.10788,12.98156 c 0.0964,11.59819 0.17626,13.10666 0.7495,14.15555 0.8969,1.64114 2.33295,2.27565 5.15028,2.27565 4.07247,0 3.8308,0.97357 3.8308,-15.43262 v -13.98014 h 4.53901 4.53901 v 17.75312 17.75313 l -2.93723,0.79255 c -2.36858,0.63911 -10.19588,1.57688 -11.76916,1.41003 -0.19971,-0.0212 -1.50695,-0.1729 -2.90496,-0.33715 z"
       id="path370"
       transform="scale(4.1666665)" />
    <path
       style="fill:#ffffff;stroke-width:0.363121"
       d="m 169.58597,149.5149 c 0.005,-1.64766 0.14918,-3.60059 0.32092,-4.33985 0.19928,-0.85785 2.2033,-3.87923 5.53955,-8.35177 5.672,-7.60383 9.38194,-12.8019 9.38194,-13.14523 0,-0.11938 -3.43149,-0.21705 -7.62554,-0.21705 h -7.62553 v -3.99433 -3.99432 h 13.2539 13.2539 v 3.48554 c 0,2.36667 -0.1772,3.85898 -0.55203,4.64887 -0.30362,0.63983 -2.80029,4.17772 -5.54816,7.86197 -5.46624,7.32897 -9.15087,12.49752 -9.15087,12.83621 0,0.11938 3.43149,0.21705 7.62553,0.21705 h 7.62553 v 3.99433 3.99432 h -13.2539 -13.2539 z"
       id="path372"
       transform="scale(4.1666665)" />
    <path
       style="fill:#ffffff;stroke-width:0.363121"
       d="m 205.88937,148.47165 v -4.03899 l 1.70574,-2.4064 c 0.93816,-1.32352 3.60383,-4.93916 5.92372,-8.03477 4.23535,-5.65156 7.25848,-9.95355 7.25848,-10.32901 0,-0.11081 -3.34978,-0.20148 -7.44397,-0.20148 h -7.44397 v -3.99433 -3.99432 h 13.07234 13.07234 v 3.85743 3.85743 l -1.70522,2.4064 c -0.93787,1.32352 -3.39319,4.65308 -5.45627,7.39903 -3.91761,5.21433 -8.08957,11.07374 -8.08957,11.36159 0,0.0923 3.43149,0.16776 7.62553,0.16776 h 7.62553 v 3.99433 3.99432 h -13.07234 -13.07234 z"
       id="path374"
       transform="scale(4.1666665)" />
    <path
       style="fill:#ffffff;stroke-width:0.363121"
       d="m 253.82129,138.20623 c 0,-12.70878 -0.0641,-14.329 -0.57438,-14.52482 -0.31591,-0.12123 -2.84868,-0.22041 -5.62837,-0.22041 h -5.05399 v -3.99433 -3.99432 h 4.39786 4.39786 l -0.23761,-1.36171 c -0.1432,-0.82066 -0.60126,-1.65025 -1.15285,-2.08794 -3.03857,-2.41108 -4.4903,-3.99743 -5.22842,-5.71322 -1.84615,-4.29149 -1.19677,-8.670792 1.77604,-11.977271 3.55376,-3.952637 8.87464,-5.068278 13.39622,-2.808817 2.57792,1.288201 4.18866,2.981508 5.44359,5.722644 0.78316,1.710659 0.87736,2.340528 0.74035,4.950844 -0.13038,2.48397 -0.34406,3.32385 -1.26087,4.95584 -0.61861,1.10118 -1.80591,2.48514 -2.7008,3.14817 -3.10121,2.29771 -3.59407,2.85176 -3.59407,4.04027 v 1.13119 h 2.54185 2.54184 v 18.51914 18.51915 h -4.90213 -4.90212 z m 4.28398,-30.41175 c 2.26883,-1.09832 3.70467,-3.43335 3.70467,-6.02471 0,-2.034757 -0.82509,-4.137544 -2.06259,-5.256627 -1.93099,-1.746203 -5.38693,-2.217652 -7.66535,-1.045686 -3.6484,1.876649 -4.99711,5.435283 -3.38433,8.929713 1.70973,3.70448 5.75521,5.16541 9.4076,3.39731 z"
       id="path376"
       transform="scale(4.1666665)" />
    <path
       style="fill:#ffffff;stroke-width:0.363121"
       d="m 294.25845,152.86343 c -2.34363,-0.31537 -5.33087,-1.61588 -6.38074,-2.77787 -0.34187,-0.37838 -0.99549,-1.49903 -1.45248,-2.49031 -0.82705,-1.794 -0.83138,-1.88931 -0.937,-20.59383 l -0.10611,-18.79149 h -5.06836 -5.06836 v -3.99432 -3.99433 h 9.80426 9.80425 v 20.32741 c 0,21.84316 0.0457,22.42061 1.866,23.55738 1.25361,0.78289 4.27453,0.89992 6.96221,0.2697 1.36048,-0.31901 2.54516,-0.58002 2.63262,-0.58002 0.0875,0 0.15903,1.69574 0.15903,3.76831 0,2.57216 -0.14408,3.88756 -0.4539,4.14403 -1.07776,0.89216 -8.38387,1.60985 -11.76142,1.15534 z"
       id="path378"
       transform="scale(4.1666665)" />
    <path
       style="fill:#ffffff;stroke-width:0.363121"
       d="M 326.08228,137.98582 V 123.461 h -5.80993 -5.80993 v -3.98163 -3.98162 l 3.72199,-0.10348 3.72199,-0.10349 0.10745,-1.64584 c 0.10352,-1.58576 0.0611,-1.66261 -1.1616,-2.10474 -1.76713,-0.63901 -4.38703,-3.67268 -5.15892,-5.9737 -0.8517,-2.53894 -0.78676,-6.236802 0.14658,-8.346777 0.98496,-2.226665 3.11536,-4.489367 5.3172,-5.647421 1.5961,-0.839465 2.26975,-0.96703 5.10673,-0.96703 2.83698,0 3.51063,0.127565 5.10673,0.96703 3.91035,2.056636 6.10016,5.668428 6.12447,10.101458 0.0245,4.47159 -2.20366,8.07218 -6.20766,10.03115 -1.66551,0.81486 -1.95884,1.09959 -1.78808,1.73564 0.11235,0.41848 0.2065,1.04683 0.20923,1.39633 0.004,0.55184 0.38726,0.63547 2.90992,0.63547 h 2.90497 v 18.51914 18.51915 h -4.72057 -4.72057 z m 3.12868,-30.10746 c 4.27303,-1.94046 5.31287,-8.049524 1.89873,-11.15503 -3.93783,-3.58186 -10.21989,-1.855233 -11.57621,3.181726 -0.43965,1.632734 -0.21738,3.136344 0.74455,5.036794 1.6365,3.23318 5.4901,4.49997 8.93293,2.93651 z"
       id="path380"
       transform="scale(4.1666665)" />
  </g>
  <path
     id="選択範囲"
     fill="none"
     stroke="#000000"
     stroke-width="1"
     d="m 284,321 c -24.15,-9.24 -32.21,-43.32 -20.68,-65 12.37,-23.25 42.11,-33.21 65.68,-20.68 7.27,3.87 13.02,8.84 17.64,15.68 5.15,7.63 8.14,16.76 8.35,26 0.32,14.36 -5.17,28.19 -15.99,37.82 -3.5,3.1 -8.7,6.45 -13,8.3 -2.51,1.09 -6.47,1.84 -7.98,4.18 -1.23,1.91 -1.02,5.46 -1.02,7.7 0,0 0,72 0,72 0,2.09 -0.12,5.06 0.6,7 1.89,5.14 11.95,12.38 16.4,16.08 0,0 50,41.92 50,41.92 0,0 0,-121 0,-121 0,0 1240,0 1240,0 0,0 0,287 0,287 0.02,12.21 4.34,10.28 15,18.23 0,0 30,21.75 30,21.75 9.83,6.79 17.83,9.69 18,23.02 0,0 0,22 0,22 0.03,13.5 4.49,7.27 15.82,20 8.35,9.39 12.45,21.51 12.17,34 -0.13,5.35 -1.76,13.09 -3.87,18 -16.09,37.48 -69.82,39.07 -88.31,2 -2.71,-5.43 -4.66,-13.93 -4.8,-20 -0.3,-13.42 4.47,-26.4 14.03,-35.96 3.44,-3.44 7.67,-6.43 11.96,-8.72 2.29,-1.22 6.6,-2.65 7.98,-4.73 1.41,-2.15 1.07,-8.86 1.02,-11.59 -0.15,-7.72 -2.96,-8.93 -9,-13 0,0 -25,-17.71 -25,-17.71 -6.32,-4.53 -8.91,-8.15 -17,-8.29 0,0 -82,0 -82,0 0,0 -163,0 -163,0 0,0 -973,0 -973,0 0,0 0,-151 0,-151 0,-1.99 0.12,-5.1 -0.6,-6.91 -1.01,-2.57 -4.33,-5.19 -6.4,-7.04 0,0 -16,-13.2 -16,-13.2 0,0 -17,-14.13 -17,-14.13 0,0 -40,-34.11 -40,-34.11 -6.04,-4.97 -18.03,-13.21 -20.35,-20.61 -0.76,-2.41 -0.65,-5.47 -0.65,-8 0,0 0,-66 0,-66 0,-8.59 -0.79,-27.64 1,-35 z m 23,-70.27 c -15.48,0.57 -29.46,13.16 -28.22,29.27 1.12,14.48 14.31,27.36 29.22,26.22 25.13,-1.94 36.7,-34.21 14,-50.43 -4.76,-3.4 -9.28,-4.55 -15,-5.06 z M 1614,361 c 0,0 -1220,0 -1220,0 0,0 0,95 0,95 0,0 0,19 0,19 0.02,2.68 -0.22,5.15 1.57,7.37 3.08,3.79 7.03,3.62 11.43,3.63 0,0 27,0 27,0 0,-13.4 -0.32,-32.31 3.44,-45 1.43,-4.85 3.82,-9.82 6.65,-14 10.62,-15.66 28.64,-21.91 46.91,-22 12.65,-0.06 24.55,2.32 37,4 0,0 0,37 0,37 -11.67,-3.38 -18.95,-4.14 -31,-4 -6.91,0.09 -13.61,1.79 -17.47,8.09 -4.27,6.97 -3.53,27.26 -3.53,35.91 0,0 52,0 52,0 0,0 0,35 0,35 0,0 -45,0 -45,0 -7.49,0.14 -6.99,2.26 -7,9 0,0 0,106 0,106 0,0 -42,0 -42,0 0,0 0,-115 0,-115 0,0 -40,0 -40,0 0,0 0,146 0,146 0,0 848,0 848,0 0,0 247,0 247,0 0,0 72,0 72,0 6.45,0 27.27,0.88 32,-1 0,0 -28,-19.88 -28,-19.88 -3.36,-2.48 -11.27,-8.66 -15,-9.58 -2.69,-0.65 -8.99,0.62 -12,1.04 0,0 -18,1.42 -18,1.42 -18.84,0.03 -38.64,-2.35 -54,-14.24 -24.63,-19.05 -24.72,-59.55 1,-77.72 18.28,-12.91 40.59,-13.04 62,-13.04 0,-5.36 0.18,-13.47 -3.51,-17.78 -3.22,-3.75 -8.89,-4.16 -13.49,-4.22 -10.22,-0.12 -18.83,-0.2 -29,1.44 0,0 -27,5.56 -27,5.56 0,0 0,-25 0,-25 0,-2.24 -0.21,-5.79 1.02,-7.7 1.41,-2.18 4.62,-2.91 6.98,-3.59 0,0 17,-3.58 17,-3.58 15.78,-2.26 30.14,-2.67 46,-1.2 10.56,0.97 22.04,3.64 29.96,11.17 9.14,8.7 12.89,22.59 13.04,34.9 0,0 1,19 1,19 0,0 0,58 0,58 0.02,9.17 0.13,7.86 12,16.42 0,0 31,21.58 31,21.58 0,0 0,-278 0,-278 z m -569,119 c 0,-2.72 0.34,-7.48 -1.02,-9.79 -1.37,-2.32 -4.72,-3.86 -6.98,-5.27 -4.26,-2.68 -7.45,-5.16 -10.82,-8.94 -8.35,-9.39 -12.45,-21.51 -12.17,-34 0.97,-42.54 53.24,-62.67 82.95,-32.96 4,4 7.92,9.75 10.16,14.96 2.68,6.22 4.02,14.24 3.87,21 -0.28,12.23 -5.38,24.31 -14.03,32.96 -7.58,7.58 -14.98,9.36 -16.94,12.43 -1.37,2.15 -1.02,7.01 -1.02,9.61 0,0 20,0 20,0 0,0 0,156 0,156 0,0 -42,0 -42,0 0,0 0,-119 0,-119 0,0 -8,-1.9 -8,-1.9 0,0 -40,0 -40,0 0,0 0,-35.1 0,-35.1 0,0 36,0 36,0 z m 296,-12 c -25.91,-7.56 -36.46,-41.79 -25.68,-65 8.38,-18.03 26,-28.43 45.68,-27.99 34.77,0.79 57.25,37.64 42.68,68.99 -6.09,13.1 -16.24,21.31 -29.68,26 0,0 1,10 1,10 0,0 24,0 24,0 0,0 0,156 0,156 0,0 -42,0 -42,0 0,0 0,-121 0,-121 0,0 -48,0 -48,0 0,0 0,-35 0,-35 0,0 31,0 31,0 0,0 1,-12 1,-12 z m -278,-72.27 c -15.48,0.57 -29.46,13.16 -28.22,29.27 1.12,14.48 14.31,27.36 29.22,26.22 25.13,-1.94 36.7,-34.21 14,-50.43 -4.76,-3.4 -9.28,-4.55 -15,-5.06 z m 297,0 c -15.48,0.57 -29.46,13.16 -28.22,29.27 1.12,14.48 14.31,27.36 29.22,26.22 25.13,-1.94 36.7,-34.21 14,-50.43 -4.76,-3.4 -9.28,-4.55 -15,-5.06 z M 1146,417 c 0,0 84,0 84,0 0,0 0,140 0,140 0,0 0,17 0,17 0,9.4 -1.17,21.51 9,26.43 4.14,2 10.41,1.62 15,1.57 9.98,-0.12 14.99,-2.95 24,-5 0,0 0,28 0,28 -0.01,2.53 0.37,6.26 -1.6,8.15 -1.85,1.78 -7.78,2.72 -10.4,3.25 -11.36,2.28 -19.49,2.73 -31,2.6 -14.07,-0.17 -30.61,-3.94 -39.21,-16 -5.81,-8.14 -7.77,-21.16 -7.79,-31 0,0 0,-140 0,-140 0,0 -42,0 -42,0 0,0 0,-35 0,-35 z m -594,63 c 0,0 41,0 41,0 0,0 0,96 0,96 0.04,8.71 0.81,19.11 9,24.15 5.53,3.4 22.78,4.5 27.4,-0.66 1.92,-2.14 1.59,-5.78 1.6,-8.49 0,0 0,-111 0,-111 0,0 41,0 41,0 0,0 0,150 0,150 0,0 -24,6.39 -24,6.39 -13.24,2.4 -25.63,2.63 -39,2.61 -14.7,-0.02 -35.39,-2.71 -45.82,-14.04 -8.27,-8.99 -11.04,-25.05 -11.18,-36.96 0,0 0,-108 0,-108 z m 154,0 c 0,0 112,0 112,0 0,0 0,27 0,27 0,0 -0.72,8 -0.72,8 0,0 -15.65,22 -15.65,22 0,0 -31.5,42 -31.5,42 0,0 -15.13,22 -15.13,22 0,0 63,0 63,0 0,0 0,35 0,35 0,0 -112,0 -112,0 0,0 0,-27 0,-27 0,0 0.72,-8 0.72,-8 0,0 15.65,-22 15.65,-22 0,0 31.5,-42 31.5,-42 0,0 15.13,-22 15.13,-22 0,0 -63,0 -63,0 0,0 0,-35 0,-35 z m 150,0 c 0,0 112,0 112,0 0,0 0,27 0,27 0,0 -0.72,8 -0.72,8 0,0 -15.65,22 -15.65,22 0,0 -31.5,42 -31.5,42 0,0 -15.13,22 -15.13,22 0,0 63,0 63,0 0,0 0,35 0,35 0,0 -112,0 -112,0 0,0 0,-27 0,-27 0,0 0.72,-8 0.72,-8 0,0 15.65,-22 15.65,-22 0,0 31.5,-42 31.5,-42 0,0 15.13,-22 15.13,-22 0,0 -63,0 -63,0 0,0 0,-35 0,-35 z m 673,87 c -10.79,0 -26.24,-1.19 -34.89,6.39 -8.14,7.12 -6.17,21.82 2.91,27.25 10.09,6.03 21.18,4.39 31.98,2.36 0,0 0,-36 0,-36 z m 138,180.73 c -15.48,0.57 -29.46,13.16 -28.22,29.27 1.12,14.48 14.31,27.36 29.22,26.22 25.13,-1.94 36.7,-34.21 14,-50.43 -4.76,-3.4 -9.28,-4.55 -15,-5.06 z"
     style="display:none" />
</svg>
